<svg xmlns="http://www.w3.org/2000/svg" xmlns:xlink="http://www.w3.org/1999/xlink" version="1.1" viewBox="151.86 5.74 396.31 548.51" fill="#fff">
 <g>
  <path d="m360.22 10.82c4.957 6.3164 187.95 239.82 187.95 345.28 0 54.719-22.176 104.26-58.043 140.11-35.852 35.867-85.395 58.043-140.11 58.043s-104.26-22.176-140.11-58.043c-35.867-35.852-58.043-85.395-58.043-140.11 0-6.7188 0.73828-13.961 2.1328-21.621 0.085938-0.82422 0.25391-1.6289 0.48828-2.418 22.562-114.64 184.94-320.75 185.44-321.39 4.3516-5.5781 12.398-6.5703 17.977-2.1992 0.90625 0.70703 1.6797 1.4961 2.3359 2.3672zm-173.16 297.97c72.324-37.281 122.09-15.91 176.72 7.5586 43.848 18.816 91.156 39.145 157.62 26.109-12.449-88.723-135.07-255.21-171.39-302.93-32.121 42.184-131.7 177.23-162.95 269.27zm334.95 59.641c-71.754 12.988-121.87-8.5195-168.37-28.492-53.457-22.949-101.68-43.648-175.18 3.4453-0.58984 4.4336-0.90625 8.6875-0.90625 12.699 0 47.629 19.305 90.738 50.5 121.94 31.199 31.199 74.324 50.5 121.94 50.5 47.629 0 90.738-19.305 121.94-50.5 28.477-28.492 47.039-66.898 50.066-109.61z"/>
  <use x="70" y="585.199219" xlink:href="#v"/>
  <use x="76.164062" y="585.199219" xlink:href="#d"/>
  <use x="80.308594" y="585.199219" xlink:href="#a"/>
  <use x="86.003906" y="585.199219" xlink:href="#j"/>
  <use x="91.671875" y="585.199219" xlink:href="#c"/>
  <use x="95.6875" y="585.199219" xlink:href="#a"/>
  <use x="101.386719" y="585.199219" xlink:href="#i"/>
  <use x="110.324219" y="585.199219" xlink:href="#h"/>
  <use x="116.335938" y="585.199219" xlink:href="#g"/>
  <use x="124.734375" y="585.199219" xlink:href="#f"/>
  <use x="131.558594" y="585.199219" xlink:href="#b"/>
  <use x="138.585938" y="585.199219" xlink:href="#u"/>
  <use x="145.097656" y="585.199219" xlink:href="#b"/>
  <use x="152.125" y="585.199219" xlink:href="#t"/>
  <use x="159.265625" y="585.199219" xlink:href="#s"/>
  <use x="168.53125" y="585.199219" xlink:href="#b"/>
  <use x="70" y="593.601562" xlink:href="#r"/>
  <use x="73.65625" y="593.601562" xlink:href="#d"/>
  <use x="77.796875" y="593.601562" xlink:href="#e"/>
  <use x="83.566406" y="593.601562" xlink:href="#q"/>
  <use x="95.246094" y="593.601562" xlink:href="#c"/>
  <use x="99.261719" y="593.601562" xlink:href="#p"/>
  <use x="105.242188" y="593.601562" xlink:href="#a"/>
  <use x="113.863281" y="593.601562" xlink:href="#b"/>
  <use x="120.894531" y="593.601562" xlink:href="#e"/>
  <use x="126.664062" y="593.601562" xlink:href="#o"/>
  <use x="132.644531" y="593.601562" xlink:href="#n"/>
  <use x="141.546875" y="593.601562" xlink:href="#m"/>
  <use x="147.703125" y="593.601562" xlink:href="#d"/>
  <use x="151.847656" y="593.601562" xlink:href="#e"/>
  <use x="157.617187" y="593.601562" xlink:href="#l"/>
  <use x="160.496094" y="593.601562" xlink:href="#a"/>
  <use x="166.195312" y="593.601562" xlink:href="#k"/>
  <use x="171.175781" y="593.601562" xlink:href="#c"/>
 </g>
</svg>