<svg xmlns="http://www.w3.org/2000/svg" xmlns:xlink="http://www.w3.org/1999/xlink" version="1.1" viewBox="96.25 131.25 507.5 297.5" fill="#fff">
 <g>
  <path d="m175 306.25h253.75c13.926 0 27.277-5.5312 37.125-15.375 9.8438-9.8477 15.375-23.199 15.375-37.125s-5.5312-27.277-15.375-37.125c-9.8477-9.8438-23.199-15.375-37.125-15.375s-27.277 5.5312-37.125 15.375c-9.8438 9.8477-15.375 23.199-15.375 37.125v8.75c0 4.832 3.918 8.75 8.75 8.75s8.75-3.918 8.75-8.75v-8.75c0-9.2812 3.6875-18.184 10.25-24.75 6.5664-6.5625 15.469-10.25 24.75-10.25s18.184 3.6875 24.75 10.25c6.5625 6.5664 10.25 15.469 10.25 24.75s-3.6875 18.184-10.25 24.75c-6.5664 6.5625-15.469 10.25-24.75 10.25h-253.75c-4.832 0-8.75 3.918-8.75 8.75s3.918 8.75 8.75 8.75z"/>
  <path d="m551.25 323.75h-297.5c-4.832 0-8.75 3.918-8.75 8.75s3.918 8.75 8.75 8.75h297.5c9.2812 0 18.184 3.6875 24.75 10.25 6.5625 6.5664 10.25 15.469 10.25 24.75s-3.6875 18.184-10.25 24.75c-6.5664 6.5625-15.469 10.25-24.75 10.25s-18.184-3.6875-24.75-10.25c-6.5625-6.5664-10.25-15.469-10.25-24.75v-8.75c0-4.832-3.918-8.75-8.75-8.75s-8.75 3.918-8.75 8.75v8.75c0 13.926 5.5312 27.277 15.375 37.125 9.8477 9.8438 23.199 15.375 37.125 15.375s27.277-5.5312 37.125-15.375c9.8438-9.8477 15.375-23.199 15.375-37.125s-5.5312-27.277-15.375-37.125c-9.8477-9.8438-23.199-15.375-37.125-15.375z"/>
  <path d="m105 306.25h35c4.832 0 8.75-3.918 8.75-8.75s-3.918-8.75-8.75-8.75h-35c-4.832 0-8.75 3.918-8.75 8.75s3.918 8.75 8.75 8.75z"/>
  <path d="m105 341.25h61.25c4.832 0 8.75-3.918 8.75-8.75s-3.918-8.75-8.75-8.75h-61.25c-4.832 0-8.75 3.918-8.75 8.75s3.918 8.75 8.75 8.75z"/>
  <path d="m227.5 332.5c0-2.3203-0.92188-4.5469-2.5625-6.1875s-3.8672-2.5625-6.1875-2.5625h-17.5c-4.832 0-8.75 3.918-8.75 8.75s3.918 8.75 8.75 8.75h17.5c2.3203 0 4.5469-0.92188 6.1875-2.5625s2.5625-3.8672 2.5625-6.1875z"/>
  <path d="m183.75 358.75h-78.75c-4.832 0-8.75 3.918-8.75 8.75s3.918 8.75 8.75 8.75h78.75c4.832 0 8.75-3.918 8.75-8.75s-3.918-8.75-8.75-8.75z"/>
  <path d="m385 358.75h-8.75c-4.832 0-8.75 3.918-8.75 8.75s3.918 8.75 8.75 8.75h8.75c4.832 0 8.75-3.918 8.75-8.75s-3.918-8.75-8.75-8.75z"/>
  <path d="m341.25 358.75h-78.75c-4.832 0-8.75 3.918-8.75 8.75s3.918 8.75 8.75 8.75h78.75c4.832 0 8.75-3.918 8.75-8.75s-3.918-8.75-8.75-8.75z"/>
  <path d="m227.5 358.75h-8.75c-4.832 0-8.75 3.918-8.75 8.75s3.918 8.75 8.75 8.75h8.75c4.832 0 8.75-3.918 8.75-8.75s-3.918-8.75-8.75-8.75z"/>
  <path d="m195.04 268.71c1.6406 1.6562 3.8789 2.5898 6.2109 2.5898s4.5703-0.93359 6.2109-2.5898l26.25-26.25c3.4336-3.4297 3.4336-8.9922 0-12.422-3.4297-3.4336-8.9922-3.4336-12.422 0l-11.289 11.375v-101.41c0-4.832-3.918-8.75-8.75-8.75s-8.75 3.918-8.75 8.75v101.41l-11.289-11.375c-3.4297-3.4336-8.9922-3.4336-12.422 0-3.4336 3.4297-3.4336 8.9922 0 12.422z"/>
  <path d="m300.04 268.71c1.6406 1.6562 3.8789 2.5898 6.2109 2.5898s4.5703-0.93359 6.2109-2.5898l26.25-26.25c3.4336-3.4297 3.4336-8.9922 0-12.422-3.4297-3.4336-8.9922-3.4336-12.422 0l-11.289 11.375v-101.41c0-4.832-3.918-8.75-8.75-8.75s-8.75 3.918-8.75 8.75v101.41l-11.289-11.375c-3.4297-3.4336-8.9922-3.4336-12.422 0-3.4336 3.4297-3.4336 8.9922 0 12.422z"/>
  <use x="70" y="691.25" xlink:href="#p"/>
  <use x="102.109375" y="691.25" xlink:href="#j"/>
  <use x="123.683594" y="691.25" xlink:href="#b"/>
  <use x="153.355469" y="691.25" xlink:href="#i"/>
  <use x="182.878906" y="691.25" xlink:href="#h"/>
  <use x="203.792969" y="691.25" xlink:href="#b"/>
  <use x="233.464844" y="691.25" xlink:href="#g"/>
  <use x="280.011719" y="691.25" xlink:href="#f"/>
  <use x="311.328125" y="691.25" xlink:href="#e"/>
  <use x="355.078125" y="691.25" xlink:href="#a"/>
  <use x="382.957031" y="691.25" xlink:href="#o"/>
  <use x="418.484375" y="691.25" xlink:href="#n"/>
  <use x="448.328125" y="691.25" xlink:href="#m"/>
  <use x="478.210937" y="691.25" xlink:href="#d"/>
  <use x="509.722656" y="691.25" xlink:href="#l"/>
  <use x="545.632812" y="691.25" xlink:href="#c"/>
  <use x="579.492188" y="691.25" xlink:href="#k"/>
  <use x="616.105469" y="691.25" xlink:href="#d"/>
  <use x="647.617188" y="691.25" xlink:href="#c"/>
  <use x="681.476562" y="691.25" xlink:href="#a"/>
 </g>
</svg>