<svg xmlns="http://www.w3.org/2000/svg" version="1.1" viewBox="97.02 0.01 505.95 560.02" fill="#fff">
 <g>
  <path d="m503.02 513.02c-10.469 10.469-28.727 10.469-39.234 0-25.949-25.949-68.191-25.949-94.199 0-10.508 10.508-28.727 10.508-39.234 0-25.969-25.91-68.211-25.988-94.219 0.039063-10.332 10.352-28.746 10.43-39.215-0.039063-25.988-25.949-68.211-25.949-94.199 0-7.5938 7.5938-7.5938 19.867 0 27.465 7.5938 7.5938 19.867 7.5938 27.465 0 10.816-10.816 28.453-10.816 39.254 0 12.41 12.41 29.543 19.539 47.078 19.539 17.809 0 34.512-6.9336 47.078-19.539 10.816-10.816 28.453-10.816 39.254 0 12.566 12.547 29.289 19.539 47.078 19.539 17.789 0 34.492-6.9336 47.059-19.539 10.816-10.816 28.414-10.855 39.254 0 25.152 25.152 69.008 25.152 94.16 0 10.816-10.816 28.414-10.855 39.254 0 7.5938 7.5938 19.867 7.5938 27.465 0 7.5938-7.5938 7.5938-19.867 0-27.465-25.852-25.949-68.113-25.949-94.098 0z"/>
  <path d="m503.02 424.12c-10.469 10.469-28.727 10.469-39.234 0-25.949-25.949-68.191-25.949-94.199 0-10.508 10.508-28.727 10.508-39.234 0-25.969-25.949-68.211-25.988-94.219 0-10.332 10.391-28.746 10.43-39.215 0-25.988-25.949-68.211-25.949-94.199 0-7.5938 7.5938-7.5938 19.867 0 27.465 7.5938 7.5938 19.867 7.5938 27.465 0 10.816-10.816 28.453-10.816 39.254 0 12.41 12.41 29.543 19.5 47.078 19.5 17.809 0 34.512-6.8945 47.078-19.5 10.816-10.816 28.453-10.816 39.254 0 12.566 12.547 29.289 19.5 47.078 19.5 17.789 0 34.492-6.8945 47.059-19.5 10.816-10.816 28.414-10.855 39.254 0 25.949 25.949 68.211 25.949 94.16 0 10.816-10.816 28.414-10.855 39.254 0 7.5938 7.5938 19.867 7.5938 27.465 0 7.5938-7.5938 7.5938-19.867 0-27.465-25.852-25.945-68.113-25.945-94.098 0z"/>
  <path d="m130.29 365.68c10.816-10.816 28.453-10.816 39.254 0 12.41 12.41 29.543 19.539 47.078 19.539 17.809 0 34.512-6.9336 47.078-19.539 10.816-10.816 28.453-10.816 39.254 0 12.566 12.547 29.289 19.539 47.078 19.539 17.809 0 34.492-6.9336 47.078-19.539 10.797-10.816 28.414-10.816 39.254 0 25.172 25.152 69.027 25.152 94.18 0 10.797-10.816 28.414-10.816 39.254 0 7.6133 7.5938 19.848 7.5938 27.465 0 7.6133-7.5938 7.6133-19.867 0-27.465-25.949-25.949-68.191-25.949-94.18 0-10.469 10.469-28.746 10.469-39.254 0-25.949-25.949-68.191-25.949-94.18 0-10.508 10.508-28.727 10.508-39.234 0-25.969-25.91-68.211-25.988-94.219 0.039062-10.332 10.352-28.746 10.43-39.215-0.039062-25.988-25.949-68.211-25.949-94.199 0-7.5938 7.5938-7.5938 19.867 0 27.465 7.6016 7.5938 19.914 7.5742 27.508 0z"/>
  <path d="m218.87 240.37c3.9414 6.0977 9.1094 9.0312 14.273 8.7969h0.097657v0.039063h0.46484c5.1875 0.23438 10.43-2.6992 14.371-8.7969l75.203-115.85c7.6523-11.789 2.332-21.441-11.73-21.461 0 0-22.898 0-22.938-0.039062 0 0-15.848 2.3906-15.848-18.742v-61.605c0.003906-16.086 1.418-22.707-14.699-22.707h-49.199c-16.117 0-14.449 4.543-14.449 20.664v63.609c0 21.133-15.965 18.781-15.965 18.781-0.039063 0-23.055 0.039062-23.055 0.039062-14.062 0-19.383 9.6719-11.73 21.441z"/>
  <path d="m388.48 146.19s23.016 0.039063 23.055 0.039063c0 0 15.965-2.3516 15.965 18.742v63.648c0 16.082-1.6719 20.645 14.449 20.645h49.195c16.121 0 14.703-6.6406 14.703-22.723v-61.605c0-21.094 15.828-18.742 15.828-18.742 0.039062 0 22.957-0.039062 22.957-0.039062 14.082-0.039062 19.363-9.6719 11.73-21.461l-75.184-115.85c-3.9414-6.0781-9.2266-9.0312-14.371-8.7969h-0.46484v0.039062h-0.097656c-5.207-0.23438-10.312 2.6992-14.258 8.7969l-75.184 115.85c-7.707 11.785-2.3867 21.457 11.676 21.457z"/>
 </g>
</svg>