<svg xmlns="http://www.w3.org/2000/svg" xmlns:xlink="http://www.w3.org/1999/xlink" version="1.1" viewBox="263.1 99.64 173.8 370.47" fill="#fff">
 <g>
  <path d="m407.93 320.26v-162.69c0-20.699-11.039-39.824-28.965-50.172-17.922-10.348-40.008-10.348-57.93 0-17.926 10.348-28.965 29.473-28.965 50.172v162.69c-18.359 15.77-28.934 38.754-28.969 62.953 0 31.043 16.562 59.73 43.449 75.254s60.012 15.523 86.898 0 43.449-44.211 43.449-75.254c-0.035157-24.199-10.609-47.184-28.969-62.953zm-57.93 128.41c-17.621 0.25781-34.625-6.4727-47.293-18.727-12.664-12.25-19.965-29.02-20.293-46.641 0.050782-19.922 9.3633-38.691 25.199-50.785l3.7656-2.8984v-172.05c0-13.801 7.3633-26.551 19.312-33.449 11.949-6.8984 26.668-6.8984 38.617 0 11.949 6.8984 19.312 19.648 19.312 33.449v171.96l3.7656 2.8984v-0.003907c15.863 12.117 25.18 30.926 25.199 50.883-0.32813 17.621-7.6289 34.391-20.293 46.641-12.668 12.254-29.672 18.984-47.293 18.727z"/>
  <path d="m359.66 347.1v-189.53c0-5.3359-4.3242-9.6562-9.6562-9.6562s-9.6562 4.3203-9.6562 9.6562v189.53c-8.4102 1.4727-15.992 5.9648-21.324 12.633-5.332 6.6641-8.0508 15.047-7.6406 23.574 0 13.801 7.3633 26.551 19.312 33.449 11.949 6.8984 26.668 6.8984 38.617 0 11.949-6.8984 19.312-19.648 19.312-33.449 0.41016-8.5273-2.3086-16.91-7.6406-23.574-5.332-6.668-12.914-11.16-21.324-12.633z"/>
  <use x="70" y="704.828125" xlink:href="#n"/>
  <use x="105.429688" y="704.828125" xlink:href="#c"/>
  <use x="129.238281" y="704.828125" xlink:href="#b"/>
  <use x="161.980469" y="704.828125" xlink:href="#a"/>
  <use x="194.554688" y="704.828125" xlink:href="#i"/>
  <use x="217.632812" y="704.828125" xlink:href="#b"/>
  <use x="250.375" y="704.828125" xlink:href="#h"/>
  <use x="301.738281" y="704.828125" xlink:href="#g"/>
  <use x="336.296875" y="704.828125" xlink:href="#f"/>
  <use x="384.570312" y="704.828125" xlink:href="#e"/>
  <use x="424.195312" y="704.828125" xlink:href="#m"/>
  <use x="440.742188" y="704.828125" xlink:href="#a"/>
  <use x="473.320312" y="704.828125" xlink:href="#l"/>
  <use x="501.9375" y="704.828125" xlink:href="#d"/>
  <use x="535.101562" y="704.828125" xlink:href="#k"/>
  <use x="585.40625" y="704.828125" xlink:href="#d"/>
  <use x="635.378906" y="704.828125" xlink:href="#j"/>
  <use x="675.453125" y="704.828125" xlink:href="#c"/>
 </g>
</svg>