<svg xmlns="http://www.w3.org/2000/svg" xmlns:xlink="http://www.w3.org/1999/xlink" version="1.1" viewBox="109.13 39.13 481.75 481.74" fill="#fff">
 <g>
  <path d="m349.95 39.145c-0.011718 0.003907-0.027343 0.003907-0.039062 0.003907-0.050781 0.003906-0.10156 0.007812-0.15234 0.011718-0.14453 0.003906-0.28516 0.015625-0.42969 0.03125-2.5938 0.3125-4.625 2.375-4.9023 4.9727-24.836 127.51-95.668 208.02-230.18 230.28-2.4297 0.21094-4.4414 1.9727-4.9766 4.3516-0.003907 0.019531-0.007813 0.035156-0.011719 0.054687-0.035156 0.16016-0.0625 0.32031-0.082031 0.48047-0.003907 0.042969-0.007813 0.085937-0.011719 0.12891-0.015625 0.12891-0.023438 0.25781-0.027344 0.38672-0.003906 0.085938-0.003906 0.17188 0 0.25781 0 0.09375 0 0.18359 0.007813 0.27734 0.007812 0.12891 0.019531 0.25781 0.039062 0.38281 0.003907 0.042969 0.011719 0.085937 0.015625 0.12891 0.027344 0.17578 0.0625 0.34766 0.10547 0.51562 0.58984 2.3281 2.5938 4.0234 4.9883 4.2109 134.46 22.27 205.28 102.75 230.12 230.2 0.25 2.6758 2.3633 4.7969 5.0352 5.0547h0.046876 0.011718c0.10547 0.003906 0.21484 0.003906 0.32422 0 0.085937 0.003906 0.17578 0.003906 0.26562 0h0.11719c2.7852-0.10156 5.0703-2.2344 5.3672-5.0039 24.891-127.51 95.664-208.01 230.17-230.28 2.4375-0.20703 4.457-1.9688 4.9922-4.3516 0.003907-0.019531 0.007813-0.039062 0.011719-0.054687 0.035156-0.16016 0.0625-0.32031 0.082031-0.48438 0.003907-0.042969 0.007813-0.085938 0.011719-0.12891 0.015625-0.12891 0.023438-0.25781 0.027344-0.38672 0.003906-0.085938 0.003906-0.17188 0-0.25781 0-0.089843 0-0.17969-0.007813-0.27344-0.007812-0.12891-0.019531-0.25781-0.039062-0.38672-0.003907-0.042969-0.011719-0.085937-0.015625-0.12891-0.027344-0.17188-0.0625-0.34375-0.10547-0.51562-0.58594-2.3203-2.5859-4.0156-4.9766-4.2109-134.46-22.27-205.23-102.74-230.14-230.2-0.25-2.6719-2.3633-4.793-5.0352-5.0508-0.015626-0.003906-0.03125-0.003906-0.046876-0.007812h-0.015624c-0.10547-0.003907-0.21484-0.007813-0.32031-0.011719-0.074219-0.003907-0.15234-0.007813-0.22656-0.007813z" fill-rule="evenodd"/>
  <use x="70" y="644" xlink:href="#t"/>
  <use x="90.550781" y="644" xlink:href="#d"/>
  <use x="104.359375" y="644" xlink:href="#c"/>
  <use x="123.347656" y="644" xlink:href="#g"/>
  <use x="142.242188" y="644" xlink:href="#e"/>
  <use x="155.628906" y="644" xlink:href="#c"/>
  <use x="174.617188" y="644" xlink:href="#b"/>
  <use x="204.410156" y="644" xlink:href="#j"/>
  <use x="224.453125" y="644" xlink:href="#i"/>
  <use x="252.453125" y="644" xlink:href="#g"/>
  <use x="271.34375" y="644" xlink:href="#f"/>
  <use x="291.28125" y="644" xlink:href="#b"/>
  <use x="311.320312" y="644" xlink:href="#d"/>
  <use x="325.132812" y="644" xlink:href="#h"/>
  <use x="334.726562" y="644" xlink:href="#s"/>
  <use x="360.59375" y="644" xlink:href="#h"/>
  <use x="370.195312" y="644" xlink:href="#b"/>
  <use x="390.234375" y="644" xlink:href="#a"/>
  <use x="409.472656" y="644" xlink:href="#b"/>
  <use x="429.515625" y="644" xlink:href="#a"/>
  <use x="70" y="672" xlink:href="#r"/>
  <use x="82.183594" y="672" xlink:href="#d"/>
  <use x="95.992188" y="672" xlink:href="#a"/>
  <use x="115.226562" y="672" xlink:href="#q"/>
  <use x="154.152344" y="672" xlink:href="#e"/>
  <use x="167.535156" y="672" xlink:href="#p"/>
  <use x="187.46875" y="672" xlink:href="#c"/>
  <use x="216.207031" y="672" xlink:href="#o"/>
  <use x="239.640625" y="672" xlink:href="#a"/>
  <use x="258.878906" y="672" xlink:href="#n"/>
  <use x="278.8125" y="672" xlink:href="#f"/>
  <use x="308.492188" y="672" xlink:href="#m"/>
  <use x="329.015625" y="672" xlink:href="#d"/>
  <use x="342.820312" y="672" xlink:href="#a"/>
  <use x="362.058594" y="672" xlink:href="#l"/>
  <use x="371.65625" y="672" xlink:href="#c"/>
  <use x="390.648438" y="672" xlink:href="#k"/>
  <use x="407.242188" y="672" xlink:href="#e"/>
 </g>
</svg>