<svg xmlns="http://www.w3.org/2000/svg" xmlns:xlink="http://www.w3.org/1999/xlink" version="1.1" viewBox="195.99 126 308 308" fill="#986d01">
 <g>
  <path d="m482.21 212.54c-9.4297 4.4766-21.652 1.3086-29.223-8.0391-8.0547-9.9492-8.168-23.598-0.47656-31.797-3.7266-3.5586-7.6367-6.9297-11.715-10.09-0.20312 0.75781-0.42969 1.5117-0.6875 2.2656-6.582 19.105-29.715 28.266-51.562 20.742-21.852-7.5234-34.441-28.984-27.863-48.09 0.64844-1.8867 1.4609-3.6719 2.4141-5.3555-4.3164-0.37891-8.6875-0.57031-13.102-0.57031-51.531 0-96.93 26.266-123.54 66.141 9.1602 7.2812 12.488 23.973 7.875 41.18-5.2773 19.707-19.234 33.621-32.453 31.758-0.19141 3.082-0.28516 6.1914-0.28516 9.3203 0 36.57 13.227 70.055 35.164 95.922 0.17969-0.24609 0.36328-0.48828 0.55078-0.73047 10.551-13.504 31.883-14.176 47.645-1.8633 15.094 11.793 19.867 31.422 10.988 44.922 16.75 6.5508 34.98 10.148 54.051 10.148 81.961 0 148.4-66.438 148.4-148.4 0-24.293-5.8359-47.227-16.184-67.465zm-2.6523-4.9492c-6.3359-11.309-14.105-21.707-23.07-30.938-5.5938 6.1133-5.4648 16.523 0.85156 24.324 5.9141 7.3047 15.195 9.7773 22.219 6.6133zm-110.27-74.742c-1.3828 1.9805-2.5039 4.1523-3.3125 6.5039-5.5039 15.988 5.2969 34.402 24.387 40.973 19.094 6.5742 38.941-1.2852 44.445-17.27 0.46484-1.3516 0.81641-2.7227 1.0508-4.0977-19.281-13.707-41.984-22.918-66.57-26.109zm-145.88 69.66c-11.387 18.559-18.805 39.809-21.078 62.578 9.9219 1.6602 21.902-10.109 26.594-27.609 4.0195-15.012 1.2891-29.055-5.5156-34.969zm67.234 213.55c7.9922-10.898 4.1406-27.941-9.1367-38.316-13.484-10.535-31.293-9.9727-39.785 0.89453-0.41016 0.52734-0.79297 1.0664-1.1445 1.6172 13.91 15.176 30.938 27.449 50.066 35.805zm59.348 17.941c-85.051 0-154-68.949-154-154s68.949-154 154-154 154 68.949 154 154-68.949 154-154 154zm53.371-72.926c7.4102-5.3828 17.184-4.9297 21.82 1.4492 4.6367 6.3828 2.0469 15.82-5.3633 21.203-7.4102 5.3828-17.184 4.9297-21.82-1.4531-4.6367-6.3789-2.0469-15.816 5.3633-21.199zm13.168 18.121c5.1016-3.707 6.7578-9.75 4.1211-13.379-2.6367-3.6289-8.8945-3.918-13.996-0.21094-5.1016 3.707-6.7617 9.75-4.125 13.379 2.6367 3.625 8.8984 3.918 14 0.21094zm-167.35-25.227c-8.8281 3.5664-19.395-3.1562-23.969-14.477-4.5742-11.316-1.6406-23.496 7.1875-27.062 8.8242-3.5664 19.395 3.1562 23.965 14.477 4.5742 11.32 1.6445 23.496-7.1836 27.062zm-2.0977-5.1914c5.5117-2.2266 7.6289-11.02 4.0898-19.773-3.5352-8.7539-11.164-13.605-16.676-11.379-5.5117 2.2266-7.6289 11.016-4.0938 19.77 3.5391 8.7539 11.168 13.609 16.68 11.383zm26.625-142.26c7.5859-7.582 19.09-8.6289 25.742-1.9805 6.6484 6.6523 5.6016 18.156-1.9805 25.742-7.582 7.582-19.09 8.625-25.738 1.9766-6.6484-6.6484-5.6055-18.156 1.9766-25.738zm19.801 19.801c5.5391-5.5391 6.2656-13.535 1.9805-17.82s-12.281-3.5586-17.82 1.9805c-5.5391 5.5391-6.2656 13.531-1.9805 17.82 4.2891 4.2852 12.281 3.5586 17.82-1.9805z"/>
  <use x="70" y="644" xlink:href="#t"/>
  <use x="90.550781" y="644" xlink:href="#f"/>
  <use x="104.359375" y="644" xlink:href="#a"/>
  <use x="123.347656" y="644" xlink:href="#e"/>
  <use x="142.242188" y="644" xlink:href="#d"/>
  <use x="155.628906" y="644" xlink:href="#a"/>
  <use x="174.617188" y="644" xlink:href="#c"/>
  <use x="204.410156" y="644" xlink:href="#j"/>
  <use x="224.453125" y="644" xlink:href="#i"/>
  <use x="252.453125" y="644" xlink:href="#h"/>
  <use x="270.292969" y="644" xlink:href="#e"/>
  <use x="289.1875" y="644" xlink:href="#g"/>
  <use x="309.121094" y="644" xlink:href="#c"/>
  <use x="329.164062" y="644" xlink:href="#e"/>
  <use x="348.058594" y="644" xlink:href="#g"/>
  <use x="377.742188" y="644" xlink:href="#h"/>
  <use x="395.582031" y="644" xlink:href="#s"/>
  <use x="405.179688" y="644" xlink:href="#b"/>
  <use x="424.414062" y="644" xlink:href="#i"/>
  <use x="442.667969" y="644" xlink:href="#c"/>
  <use x="70" y="672" xlink:href="#r"/>
  <use x="82.183594" y="672" xlink:href="#f"/>
  <use x="95.992188" y="672" xlink:href="#b"/>
  <use x="115.226562" y="672" xlink:href="#q"/>
  <use x="154.152344" y="672" xlink:href="#d"/>
  <use x="167.535156" y="672" xlink:href="#p"/>
  <use x="187.46875" y="672" xlink:href="#a"/>
  <use x="216.207031" y="672" xlink:href="#o"/>
  <use x="239.640625" y="672" xlink:href="#b"/>
  <use x="258.878906" y="672" xlink:href="#n"/>
  <use x="278.8125" y="672" xlink:href="#g"/>
  <use x="308.492188" y="672" xlink:href="#m"/>
  <use x="329.015625" y="672" xlink:href="#f"/>
  <use x="342.820312" y="672" xlink:href="#b"/>
  <use x="362.058594" y="672" xlink:href="#l"/>
  <use x="371.65625" y="672" xlink:href="#a"/>
  <use x="390.648438" y="672" xlink:href="#k"/>
  <use x="407.242188" y="672" xlink:href="#d"/>
 </g>
</svg>