<svg xmlns="http://www.w3.org/2000/svg" xmlns:xlink="http://www.w3.org/1999/xlink" version="1.1" viewBox="96.71 26.71 506.58 506.58" fill="#ffbb15">
 <g>
  <path d="m500.51 280c0 83.125-67.387 150.51-150.51 150.51s-150.51-67.387-150.51-150.51 67.387-150.51 150.51-150.51 150.51 67.387 150.51 150.51"/>
  <path d="m358.9 26.707h-17.805l-24.652 83.824h67.109z"/>
  <path d="m231.06 56.184-6.6484 3.8438-2.1328 1.2266-6.6367 3.8359 20.562 84.93 27.996-16.168 2.1328-1.2266 27.996-16.16z"/>
  <path d="m135.09 145.64-3.8359 6.6367-1.2266 2.1328-3.8438 6.6523 60.273 63.266 16.168-27.996 1.2266-2.1328 16.168-27.996z"/>
  <path d="m96.707 271.1v17.805l83.824 24.652v-67.109z"/>
  <path d="m126.18 398.93 3.8438 6.6523 1.2266 2.1328 3.8359 6.6367 84.93-20.562-16.168-27.996-1.2266-2.1328-16.168-27.996z"/>
  <path d="m215.64 494.91 6.6367 3.8359 2.1328 1.2266 6.6484 3.8438 63.27-60.273-27.996-16.168-2.1328-1.2266-27.996-16.168z"/>
  <path d="m341.1 533.29h17.805l24.652-83.824h-67.109z"/>
  <path d="m468.93 503.82 6.6523-3.8438 2.1328-1.2266 6.6367-3.8359-20.562-84.93-27.996 16.168-2.1328 1.2266-27.996 16.168z"/>
  <path d="m564.91 414.36 3.8359-6.6367 1.2266-2.1328 3.8438-6.6523-60.281-63.266-16.16 27.996-1.2266 2.1406-16.168 27.988z"/>
  <path d="m603.29 288.9v-17.805l-83.824-24.652v67.109z"/>
  <path d="m573.82 161.07-3.8438-6.6523-1.2266-2.1328-3.8359-6.6367-84.93 20.562 16.168 27.996 1.2266 2.1328 16.16 27.996z"/>
  <path d="m484.36 65.09-6.6367-3.8359-2.1328-1.2266-6.6523-3.8438-63.266 60.281 27.996 16.16 2.1328 1.2266 27.996 16.168z"/>
  <use x="70" y="644" xlink:href="#x"/>
  <use x="90.550781" y="644" xlink:href="#c"/>
  <use x="104.359375" y="644" xlink:href="#b"/>
  <use x="123.347656" y="644" xlink:href="#e"/>
  <use x="142.242188" y="644" xlink:href="#d"/>
  <use x="155.628906" y="644" xlink:href="#b"/>
  <use x="174.617188" y="644" xlink:href="#k"/>
  <use x="204.410156" y="644" xlink:href="#j"/>
  <use x="224.453125" y="644" xlink:href="#i"/>
  <use x="252.453125" y="644" xlink:href="#h"/>
  <use x="280.3125" y="644" xlink:href="#e"/>
  <use x="299.210938" y="644" xlink:href="#c"/>
  <use x="313.015625" y="644" xlink:href="#g"/>
  <use x="329.617188" y="644" xlink:href="#a"/>
  <use x="358.601562" y="644" xlink:href="#w"/>
  <use x="376.441406" y="644" xlink:href="#f"/>
  <use x="386.039062" y="644" xlink:href="#v"/>
  <use x="404.289062" y="644" xlink:href="#a"/>
  <use x="423.527344" y="644" xlink:href="#u"/>
  <use x="433.125" y="644" xlink:href="#t"/>
  <use x="449.789062" y="644" xlink:href="#f"/>
  <use x="70" y="672" xlink:href="#s"/>
  <use x="82.183594" y="672" xlink:href="#c"/>
  <use x="95.992188" y="672" xlink:href="#a"/>
  <use x="115.226562" y="672" xlink:href="#r"/>
  <use x="154.152344" y="672" xlink:href="#d"/>
  <use x="167.535156" y="672" xlink:href="#q"/>
  <use x="187.46875" y="672" xlink:href="#b"/>
  <use x="216.207031" y="672" xlink:href="#p"/>
  <use x="239.640625" y="672" xlink:href="#a"/>
  <use x="258.878906" y="672" xlink:href="#o"/>
  <use x="278.8125" y="672" xlink:href="#n"/>
  <use x="308.492188" y="672" xlink:href="#m"/>
  <use x="329.015625" y="672" xlink:href="#c"/>
  <use x="342.820312" y="672" xlink:href="#a"/>
  <use x="362.058594" y="672" xlink:href="#l"/>
  <use x="371.65625" y="672" xlink:href="#b"/>
  <use x="390.648438" y="672" xlink:href="#g"/>
  <use x="407.242188" y="672" xlink:href="#d"/>
 </g>
</svg>