<svg xmlns="http://www.w3.org/2000/svg" xmlns:xlink="http://www.w3.org/1999/xlink" version="1.1" viewBox="96.25 26.25 507.5 506.16" fill="#fff">
 <g>
  <path d="m290.24 220.24 7.6992-23.102-61.688-30.887 30.887 61.688z"/>
  <path d="m267.14 332.06-30.887 61.688 61.688-30.887-7.6992-23.102z"/>
  <path d="m409.76 339.76-7.6992 23.102 61.688 30.887-30.887-61.688z"/>
  <path d="m432.86 227.94 30.887-61.688-61.688 30.887 7.6992 23.102z"/>
  <path d="m358.3 93.48c-1.2422-3.5156-4.5664-5.8711-8.2969-5.8711s-7.0547 2.3555-8.2969 5.8711l-44.555 133.66-133.67 44.555v0.003906c-3.5703 1.1875-5.9805 4.5312-5.9805 8.2969s2.4102 7.1055 5.9805 8.2969l133.67 44.555 44.555 133.67c1.1914 3.5703 4.5312 5.9805 8.2969 5.9805s7.1055-2.4102 8.2969-5.9805l44.555-133.67 133.67-44.555c3.5703-1.1914 5.9805-4.5312 5.9805-8.2969s-2.4102-7.1094-5.9805-8.2969l-133.67-44.555zm-56.602 222.44-107.78-35.922h143.71zm12.383-84.227 35.922-107.78v143.71zm35.922 204.39v-143.71l35.922 35.93zm12.371-156.08 35.93-35.922 107.78 35.922z"/>
  <path d="m350 26.25c-67.297 0-131.84 26.734-179.43 74.32-47.586 47.59-74.32 112.13-74.32 179.43 13.367 336.59 494.18 336.5 507.5-0.003906 0-67.297-26.734-131.84-74.32-179.43-47.59-47.586-112.13-74.32-179.43-74.32zm141.81 73.828c1.6406-1.6406 3.8633-2.5625 6.1836-2.5625 2.3203 0 4.5469 0.92188 6.1875 2.5625l25.738 25.738c3.418 3.4141 3.418 8.957 0 12.371-3.418 3.418-8.957 3.418-12.371 0l-25.738-25.738c-1.6406-1.6367-2.5664-3.8633-2.5664-6.1836s0.92578-4.5469 2.5664-6.1875zm-160.01-56.328h36.402-0.003906c4.7656 0.09375 8.582 3.9844 8.582 8.75s-3.8164 8.6562-8.582 8.75h-36.402 0.003906c-4.7695-0.09375-8.582-3.9844-8.582-8.75s3.8164-8.6562 8.582-8.75zm-161.72 82.066 25.738-25.738c3.4336-3.3008 8.8828-3.25 12.25 0.12109 3.3711 3.3711 3.4258 8.8164 0.12109 12.254l-25.738 25.734c-3.4336 3.3086-8.8828 3.2578-12.254-0.11328-3.375-3.375-3.4258-8.8242-0.11719-12.258zm-38.828 172.38c-0.09375 4.7656-3.9844 8.582-8.75 8.582s-8.6562-3.8164-8.75-8.582v-36.402 0.003906c0-4.8359 3.918-8.75 8.75-8.75s8.75 3.9141 8.75 8.75zm76.938 161.72c-1.6406 1.6406-3.8633 2.5625-6.1836 2.5625-2.3203 0-4.5469-0.92188-6.1875-2.5625l-25.738-25.738c-3.418-3.4141-3.418-8.957 0-12.371 3.418-3.418 8.957-3.418 12.371 0l25.738 25.738c1.6406 1.6367 2.5664 3.8633 2.5664 6.1836s-0.92578 4.5469-2.5664 6.1875zm160.01 56.328h-36.398c-4.7656-0.09375-8.582-3.9844-8.582-8.75s3.8164-8.6562 8.582-8.75h36.402-0.003906c4.7695 0.09375 8.582 3.9844 8.582 8.75s-3.8164 8.6562-8.582 8.75zm161.72-82.066-25.738 25.738c-1.6367 1.6484-3.8672 2.582-6.1914 2.5859-2.3281 0.003907-4.5586-0.91797-6.2031-2.5625-1.6445-1.6445-2.5664-3.8789-2.5625-6.2031 0.003907-2.3281 0.93359-4.5547 2.5859-6.1953l25.738-25.738v0.003906c3.4336-3.3047 8.8828-3.25 12.25 0.12109 3.3711 3.3672 3.4258 8.8164 0.12109 12.25zm-179.92 47.066c-53.375 0-104.56-21.203-142.3-58.945-37.742-37.742-58.945-88.93-58.945-142.3 10.602-266.95 391.94-266.88 402.5 0 0 53.375-21.203 104.57-58.945 142.3-37.742 37.742-88.93 58.945-142.3 58.945zm227.5-174.3c-2.3203 0.003906-4.5469-0.91797-6.1875-2.5586s-2.5625-3.8672-2.5625-6.1914v-36.398c0-4.832 3.918-8.75 8.75-8.75s8.75 3.918 8.75 8.75v36.402-0.003906c0 2.3242-0.92188 4.5508-2.5625 6.1914s-3.8672 2.5625-6.1875 2.5586z"/>
  <use x="70" y="691.25" xlink:href="#p"/>
  <use x="102.109375" y="691.25" xlink:href="#j"/>
  <use x="123.683594" y="691.25" xlink:href="#b"/>
  <use x="153.355469" y="691.25" xlink:href="#i"/>
  <use x="182.878906" y="691.25" xlink:href="#h"/>
  <use x="203.792969" y="691.25" xlink:href="#b"/>
  <use x="233.464844" y="691.25" xlink:href="#g"/>
  <use x="280.011719" y="691.25" xlink:href="#f"/>
  <use x="311.328125" y="691.25" xlink:href="#e"/>
  <use x="355.078125" y="691.25" xlink:href="#a"/>
  <use x="382.957031" y="691.25" xlink:href="#o"/>
  <use x="418.484375" y="691.25" xlink:href="#n"/>
  <use x="448.328125" y="691.25" xlink:href="#m"/>
  <use x="478.210937" y="691.25" xlink:href="#d"/>
  <use x="509.722656" y="691.25" xlink:href="#l"/>
  <use x="545.632812" y="691.25" xlink:href="#c"/>
  <use x="579.492188" y="691.25" xlink:href="#k"/>
  <use x="616.105469" y="691.25" xlink:href="#d"/>
  <use x="647.617188" y="691.25" xlink:href="#c"/>
  <use x="681.476562" y="691.25" xlink:href="#a"/>
 </g>
</svg>