<svg xmlns="http://www.w3.org/2000/svg" xmlns:xlink="http://www.w3.org/1999/xlink" version="1.1" viewBox="131.98 86.88 436.04 386.3" fill="#fff">
 <g>
  <path d="m180.54 245.26c0 9.3672 7.5898 16.969 16.969 16.969h263.03c1.0508 0 2.0703-0.125 3.0664-0.30469 0.99609 0.19141 2.0156 0.30469 3.0664 0.30469 48.34 0 87.676-39.336 87.676-87.676 0-46.023-35.66-83.797-80.797-87.324-1.5938-0.16016-3.168-0.19141-4.75-0.23828-0.71094-0.023437-1.4141-0.11328-2.125-0.11328-0.10156 0-0.20312 0.035156-0.31641 0.035156-41.77-0.39453-79.125 29.223-86.977 71.668-1.6953 9.207 4.3906 18.066 13.598 19.766 9.2656 1.7773 18.066-4.3906 19.773-13.598 5.25-28.418 32.129-47.344 60.457-43.262 0.78125 0.10156 1.582 0.11328 2.3516 0.23828 29.02 5.5 48.25 33.52 42.875 62.574-0.27344 1.4922-0.28125 2.9648-0.16797 4.4023-6.2578 22.762-26.902 39.605-51.609 39.605-1.0508 0-2.0703 0.125-3.0664 0.30469-0.99609-0.19141-2.0156-0.30469-3.0664-0.30469h-263.03c-9.3633-0.015626-16.957 7.5859-16.957 16.953z"/>
  <path d="m407.15 325.56h-153.75c-0.78125 0-1.5273 0.13672-2.2852 0.23828-0.74609-0.10156-1.4922-0.23828-2.2852-0.23828-38.398 0-69.633 33.102-69.633 73.773 0 38.543 28.047 70.23 63.637 73.469 2.2969 0.23828 4.6055 0.375 6.8906 0.375 13.316 0 26.371-4.0391 37.742-11.855 16.055-11.031 27.23-28.805 30.648-48.758 1.582-9.2305-4.6172-18.012-13.859-19.594-9.2305-1.5742-18.012 4.6172-19.594 13.859-1.8906 10.984-7.8633 20.645-16.414 26.52-6.7539 4.6367-14.641 6.4492-22.469 5.5-0.88281-0.089844-1.7773-0.14844-2.6367-0.29297-19.504-4.0273-32.332-24.879-28.598-46.633 0.22656-1.2773 0.26172-2.5469 0.19141-3.7891 4.3672-16.484 17.91-28.621 34.074-28.621 0.78125 0 1.5273-0.13672 2.2852-0.23828 0.75781 0.10156 1.5039 0.23828 2.2852 0.23828h153.76c9.3789 0 16.969-7.6016 16.969-16.969-0.003907-9.3828-7.5742-16.984-16.953-16.984z"/>
  <path d="m460.54 218.85c9.3789 0 16.969-7.6016 16.969-16.969 0-9.3672-7.5898-16.969-16.969-16.969h-111.72c-9.3789 0-16.969 7.6016-16.969 16.969 0 9.3672 7.5898 16.969 16.969 16.969z"/>
  <path d="m551.05 279.2h-309.7c-9.3789 0-16.969 7.6016-16.969 16.969 0 9.3672 7.5898 16.969 16.969 16.969h309.7c9.3789 0 16.969-7.6016 16.969-16.969 0.003906-9.3633-7.5977-16.969-16.965-16.969z"/>
  <path d="m302.16 218.85c9.3672 0 16.969-7.6016 16.969-16.969 0-9.3789-7.6016-16.969-16.969-16.969l-60.809 0.011719c-9.3672 0-16.969 7.6016-16.969 16.969 0 9.3789 7.6016 16.969 16.969 16.969z"/>
  <path d="m492.76 327.57-47.23-0.011718c-9.3672 0-16.969 7.5898-16.969 16.969 0 9.3672 7.5898 16.969 16.969 16.969l47.23 0.011718c9.3672 0 16.969-7.5898 16.969-16.969-0.011719-9.3633-7.6016-16.969-16.969-16.969z"/>
  <path d="m221.07 296.17c0-9.3672-7.5898-16.969-16.969-16.969l-55.152-0.003907c-9.3789 0-16.969 7.6016-16.969 16.969 0 9.3672 7.5898 16.969 16.969 16.969h55.152c9.3789 0.003907 16.969-7.5977 16.969-16.965z"/>
  <use x="70" y="729.695313" xlink:href="#l"/>
  <use x="111.511719" y="729.695313" xlink:href="#h"/>
  <use x="139.410156" y="729.695313" xlink:href="#c"/>
  <use x="177.773438" y="729.695313" xlink:href="#b"/>
  <use x="215.945313" y="729.695313" xlink:href="#g"/>
  <use x="242.984375" y="729.695313" xlink:href="#c"/>
  <use x="281.347656" y="729.695313" xlink:href="#a"/>
  <use x="341.53125" y="729.695313" xlink:href="#f"/>
  <use x="382.023438" y="729.695313" xlink:href="#e"/>
  <use x="438.589844" y="729.695313" xlink:href="#d"/>
  <use x="482.367188" y="729.695313" xlink:href="#k"/>
  <use x="522.636719" y="729.695313" xlink:href="#j"/>
  <use x="581.578125" y="729.695313" xlink:href="#b"/>
  <use x="619.746094" y="729.695313" xlink:href="#a"/>
  <use x="679.929688" y="729.695313" xlink:href="#i"/>
 </g>
</svg>