<svg xmlns="http://www.w3.org/2000/svg" version="1.1" viewBox="99.16 68.83 501.67 422.34" fill="#fff">
 <g fill-rule="evenodd">
  <path d="m432.83 196c0-36.703 29.797-66.5 66.5-66.5s66.5 29.797 66.5 66.5-29.797 66.5-66.5 66.5h-382.67c-9.6602 0-17.5 7.8398-17.5 17.5s7.8398 17.5 17.5 17.5h382.67c56.023 0 101.5-45.477 101.5-101.5s-45.477-101.5-101.5-101.5c-56.023 0-101.5 45.477-101.5 101.5 0 9.6602 7.8398 17.5 17.5 17.5 9.6602 0 17.5-7.8398 17.5-17.5z"/>
  <path d="m253.17 142.33c0-21.258 17.242-38.5 38.5-38.5 21.258 0 38.5 17.242 38.5 38.5 0 21.258-17.242 38.5-38.5 38.5h-175c-9.6602 0-17.5 7.8398-17.5 17.5 0 9.6602 7.8398 17.5 17.5 17.5h175c40.578 0 73.5-32.922 73.5-73.5s-32.922-73.5-73.5-73.5-73.5 32.922-73.5 73.5c0 9.6602 7.8398 17.5 17.5 17.5 9.6602 0 17.5-7.8398 17.5-17.5z"/>
  <path d="m407.17 417.67c0 40.578 32.922 73.5 73.5 73.5s73.5-32.922 73.5-73.5-32.922-73.5-73.5-73.5h-364c-9.6602 0-17.5 7.8398-17.5 17.5 0 9.6602 7.8398 17.5 17.5 17.5h364c21.258 0 38.5 17.242 38.5 38.5 0 21.258-17.242 38.5-38.5 38.5-21.258 0-38.5-17.242-38.5-38.5 0-9.6602-7.8398-17.5-17.5-17.5-9.6602 0-17.5 7.8398-17.5 17.5z"/>
 </g>
</svg>