<?xml version="1.0" encoding="utf-8"?>
<svg xmlns="http://www.w3.org/2000/svg" xmlns:xlink="http://www.w3.org/1999/xlink">

    <symbol id="home-icon" viewBox="70 34.76 559.6 486.38">
        <g>
            <path d="m629.29 255.54c-1.3945-11.617-7.2344-22-16.438-29.23l-228.68-179.63c-20.238-15.898-48.512-15.898-68.758 0l-228.68 179.63c-19 14.926-22.316 42.523-7.3945 61.523 14.926 19 42.523 22.316 61.527 7.3906l188.72-148.25c11.895-9.3438 28.512-9.3438 40.406 0l188.72 148.25c8.0078 6.293 17.547 9.3438 27.02 9.3438 12.996 0 25.871-5.7422 34.504-16.734 7.2305-9.2031 10.441-20.672 9.0469-32.293" fill-rule="evenodd"/>
            <path d="m542.81 309.61-171.67-133.87c-12.574-9.8047-30.133-9.8047-42.711 0l-171.66 133.87c-2.7891 2.1758-4.4219 5.5117-4.4219 9.0508v152.77c0 27.406 22.297 49.703 49.707 49.703h295.47c27.406 0 49.703-22.297 49.703-49.703v-152.77c0-3.5391-1.6328-6.875-4.418-9.0508" fill-rule="evenodd"/>
        </g>
    </symbol>

    <symbol id="book-icon" viewBox="102.97 4.67 494.09 550.67">
        <g>
            <path d="m533.61 4.668h-282.57c-38.734-0.074219-75.938 15.082-103.55 42.223-5.7695 5.1523-6.2734 14-1.1211 19.77 5.1523 5.7695 14 6.2734 19.77 1.1211 0.31641-0.28125 0.61719-0.57812 0.91406-0.87891 22.418-22.008 52.586-34.309 84-34.234h282.57c19.582 0 35.465 15.887 35.465 35.465v306.82h-375.92c-23.203 0.039063-45.492 9.0547-62.199 25.164v-228.89c0-7.7266-6.2734-14-14-14-7.7266 0-14 6.2734-14 14v293.91c0.054687 49.785 40.414 90.141 90.199 90.199h355.52c26.691-0.039063 48.328-21.672 48.367-48.367v-438.86c-0.019532-35.035-28.41-63.43-63.449-63.445zm15.102 522.66h-355.54c-34.348 0.59766-62.664-26.77-63.262-61.113-0.59766-34.348 26.77-62.664 61.113-63.262 0.72656-0.019531 1.4375-0.019531 2.1484 0h375.89v104.01h0.019531c-0.019531 11.238-9.1289 20.348-20.367 20.363z"/>
            <path d="m219.8 211.03c0 7.7266 6.2734 14 14 14h232.32c7.7266 0 14-6.2734 14-14 0-7.7266-6.2734-14-14-14h-232.32c-7.7461 0-14 6.2695-14 14z"/>
            <path d="m419.98 150.19c7.7266 0 14-6.2734 14-14 0-7.7266-6.2734-14-14-14h-140c-7.7266 0-14 6.2734-14 14 0 7.7266 6.2734 14 14 14z"/>
        </g>
    </symbol>

    <symbol id="image-icon" viewBox="100.23 16.14 499.54 527.73">
        <g>
            <path d="m168.3 543.87h363.41c18.047-0.019532 35.348-7.1992 48.105-19.957 12.762-12.762 19.938-30.062 19.961-48.105v-391.61c-0.023437-18.043-7.1992-35.344-19.961-48.102-12.758-12.758-30.059-19.938-48.105-19.957h-363.41c-18.047 0.019531-35.348 7.1992-48.105 19.957-12.762 12.758-19.938 30.059-19.961 48.102v391.61c0.023437 18.043 7.1992 35.344 19.961 48.105 12.758 12.758 30.059 19.938 48.105 19.957zm363.41-23.332h-363.41c-11.016-0.035156-21.629-4.1406-29.801-11.531-8.168-7.3867-13.316-17.535-14.457-28.492l150.41-137.38 55.559 55.555c2.1875 2.1875 5.1562 3.418 8.25 3.418s6.0625-1.2305 8.25-3.418l131.16-131.16 98.77 98.762-0.003906 109.52c-0.011719 11.859-4.7266 23.227-13.113 31.613-8.3867 8.3867-19.758 13.102-31.617 13.117zm-363.41-481.06h363.41c11.859 0.011719 23.23 4.7266 31.613 13.113 8.3867 8.3828 13.105 19.75 13.117 31.609v249.09l-90.52-90.512c-2.1875-2.1875-5.1523-3.418-8.2461-3.418s-6.0625 1.2305-8.25 3.418l-131.16 131.16-55.195-55.188c-4.4102-4.418-11.512-4.5781-16.113-0.36719l-143.38 130.96v-365.15c0.011719-11.859 4.7305-23.227 13.117-31.609 8.3828-8.3867 19.754-13.102 31.613-13.113z"/>
            <path d="m296.76 231.2c13.688 0.003907 26.812-5.4336 36.488-15.109 9.6758-9.6758 15.113-22.801 15.113-36.484 0-13.684-5.4375-26.809-15.113-36.484-9.6758-9.6797-22.801-15.113-36.484-15.113-13.684 0-26.809 5.4375-36.484 15.113-9.6758 9.6758-15.113 22.801-15.113 36.484 0.015626 13.68 5.457 26.793 15.129 36.465 9.6719 9.6758 22.789 15.113 36.465 15.129zm0-79.859c7.4961 0 14.688 2.9766 19.988 8.2773 5.3008 5.3008 8.2773 12.488 8.2812 19.984 0 7.4961-2.9766 14.684-8.2773 19.984s-12.488 8.2812-19.984 8.2812-14.688-2.9766-19.988-8.2773c-5.3008-5.2969-8.2773-12.488-8.2773-19.984 0.007812-7.4922 2.9883-14.676 8.2852-19.977 5.2969-5.2969 12.48-8.2773 19.973-8.2891z"/>
        </g>
    </symbol>

    <symbol id="notify-icon" viewBox="162.27 15.4 375.45 529.2">
        <g>
            <path d="m527.81 390.92c-16.035-22.352-24.512-48.699-24.512-76.207v-83.094c0-41.004-15.965-79.5-44.938-108.37-16.215-16.219-35.469-28.371-56.43-35.91 0.039062-1.0742 0.0625-2.1523 0.0625-3.2305 0-38.527-22.836-68.711-51.996-68.711s-51.996 30.184-51.996 68.711c0 1.207 0.023438 2.4062 0.070313 3.5977-58.988 21.906-101.38 80-101.38 147.6v79.402c0 27.508-8.4766 53.855-24.512 76.207-9.793 13.648-12.484 30.668-7.3828 46.68 5.082 15.93 17.039 28.18 32.816 33.605 25.965 8.9258 54.199 15.461 83.656 19.438 4.4219 30.402 33.555 53.961 68.723 53.961s64.301-23.559 68.719-53.961c29.457-3.9766 57.691-10.512 83.656-19.438 15.777-5.4258 27.738-17.676 32.816-33.605 5.1055-16.012 2.4141-33.031-7.3789-46.68zm-177.81-350.32c13.812 0 25.582 18.012 26.707 40.059-9.2656-1.6172-18.742-2.3828-28.328-2.2539-8.5469 0.089844-16.93 0.90234-25.098 2.3867 1.0859-22.109 12.879-40.191 26.719-40.191zm0 478.8c-19.773 0-36.543-10.91-42.125-25.891 13.883 1.125 27.957 1.6992 42.125 1.6992s28.242-0.57031 42.125-1.6992c-5.582 14.984-22.352 25.891-42.125 25.891zm161.18-89.449c-2.6367 8.2617-8.832 14.617-16.996 17.422-43.066 14.809-92.926 22.637-144.18 22.637s-101.12-7.8242-144.18-22.637c-8.1641-2.8047-14.359-9.1602-16.996-17.422-2.6641-8.3516-1.2617-17.223 3.8438-24.34 19.125-26.656 29.234-58.094 29.234-90.898v-79.402c0-71.898 56.859-130.98 126.74-131.7 0.45703-0.003907 0.91016-0.003907 1.3633-0.003907 34.234 0 66.348 13.273 90.559 37.484 24.203 24.121 37.539 56.277 37.539 90.531v83.094c0 32.809 10.113 64.242 29.234 90.895 5.1094 7.1211 6.5078 15.992 3.8438 24.344z"/>
        </g>
    </symbol>

    <symbol id="settings-icon" viewBox="106.37 0 487.25 560.01">
        <g>
            <path d="m354.24 1.1367 235.14 135.76c2.625 1.5156 4.2422 4.3164 4.2422 7.3477v271.52c0 3.0312-1.6172 5.832-4.2422 7.3477l-235.14 135.76c-2.625 1.5156-5.8594 1.5156-8.4844 0l-235.14-135.76c-2.625-1.5156-4.2422-4.3164-4.2422-7.3477v-271.52c0-3.0312 1.6172-5.832 4.2422-7.3477l235.14-135.76c2.625-1.5156 5.8594-1.5156 8.4844 0zm-4.2422 17.145-226.65 130.86v261.72l226.65 130.86 226.65-130.86v-261.72zm0 388.99c-70.289 0-127.27-56.984-127.27-127.27s56.984-127.27 127.27-127.27 127.27 56.984 127.27 127.27-56.984 127.27-127.27 127.27zm0-16.969c60.918 0 110.3-49.387 110.3-110.3s-49.387-110.3-110.3-110.3-110.3 49.387-110.3 110.3 49.387 110.3 110.3 110.3z" fill-rule="evenodd"/>
        </g>
    </symbol>

    <symbol id="upload-icon" viewBox="97.99 95.19 504 369.61">
        <g>
            <path d="m350 95.203c-38.668 0-77.438 14.613-106.93 44.102-22.883 22.883-36.516 51.516-41.648 81.199-58.555 9.5078-103.43 59.953-103.43 121.1 0 67.91 55.293 123.2 123.2 123.2h274.4c58.75 0 106.4-47.648 106.4-106.4 0-57.195-45.25-103.45-101.85-105.88 1.6367-40.75-12.352-82.176-43.398-113.23-29.469-29.469-68.082-44.102-106.75-44.102zm0 22.398c32.992 0 65.797 12.422 91 37.625 29.129 29.129 41.289 68.684 36.75 106.57-0.40234 3.207 0.59766 6.4297 2.7422 8.8398 2.1445 2.4141 5.2266 3.7852 8.457 3.7617h6.6484c46.73 0 84 37.27 84 84 0 46.73-37.27 84-84 84h-274.4c-55.801 0-100.8-44.996-100.8-100.8 0-52.691 40.145-95.785 91.523-100.45h0.003906c5.2734-0.45703 9.5078-4.5469 10.148-9.8008 3.2305-27.832 15.367-54.742 36.75-76.125 25.188-25.188 58.184-37.625 91.176-37.625zm0 112c-2.9961 0.054688-5.9258 1.332-7.5234 2.8008l-61.602 56c-4.6016 4.0078-4.8242 11.562-0.875 15.926 3.9531 4.3633 11.578 4.668 15.926 0.69922l42.875-39.027v120.4c0 6.1875 5.0117 11.199 11.199 11.199s11.199-5.0156 11.199-11.199v-120.4l42.875 39.027c4.3477 3.9688 11.766 3.4688 15.926-0.69922 4.3125-4.3203 3.5078-11.992-0.875-15.926l-61.602-56c-2.4648-2.2539-4.5547-2.8086-7.5234-2.8008z"/>
        </g>
    </symbol>

    <symbol id="info-icon" viewBox="245 0 210 560">
        <g>
            <path d="m350 105c28 0 52.5-24.5 52.5-52.5s-24.5-52.5-52.5-52.5-52.5 24.5-52.5 52.5 24.5 52.5 52.5 52.5zm35 385v-315h-140v70h70v245h-70v70h210v-70z"/>
        </g>
    </symbol>

    <symbol id="prev-icon" viewBox="116.22 8.14 410 546.42">
        <g>
            <path d="m133.19 9.8438h101.82c9.332 0 16.969 7.6367 16.969 16.969v206.45l310.05-219.61 5.9375-4.207c1.9844-0.83203 4.1406-1.3086 6.4336-1.3086 9.3828 0 16.969 7.6055 16.969 16.973v512.48c0 9.3477-7.5859 16.969-16.969 16.969-2.293 0-4.4492-0.49219-6.4336-1.3242l-5.9219-4.1719-310.07-219.62v206.45c0 9.3359-7.6367 16.969-16.969 16.969h-101.82c-9.332 0-16.969-7.6328-16.969-16.969v-509.09c0-9.332 7.6367-16.969 16.969-16.969z"/>
        </g>
    </symbol>

    <symbol id="play-icon" viewBox="167.14 37.49 280 485.02">
        <g>
            <path d="m178.34 522.51c-1.8047 0-3.6133-0.4375-5.2578-1.3086-3.6523-1.9414-5.9414-5.7461-5.9414-9.8906v-462.62c0-4.1367 2.2852-7.9414 5.9414-9.8906 3.6562-1.9375 8.0859-1.7148 11.52 0.59766l343.32 231.31c3.0898 2.082 4.9453 5.5664 4.9453 9.2891s-1.8555 7.207-4.9453 9.2891l-343.33 231.31c-1.8789 1.2734-4.0664 1.9141-6.2539 1.9141z"/>
        </g>
    </symbol>

    <symbol id="pause-icon" viewBox="141.02 11.54 407.28 543.03">
        <g>
            <path d="m276.78 537.6c0 9.332-7.6367 16.969-16.969 16.969h-101.82c-9.332 0-16.969-7.6367-16.969-16.969v-509.09c0-9.3359 7.6367-16.973 16.969-16.973h101.82c9.332 0 16.969 7.6367 16.969 16.973z"/>
            <path d="m548.3 537.6c0 9.332-7.6367 16.969-16.969 16.969h-101.82c-9.3359 0-16.973-7.6367-16.973-16.969v-509.09c0-9.3359 7.6367-16.973 16.973-16.973h101.82c9.332 0 16.969 7.6367 16.969 16.973z"/>
        </g>
    </symbol>

    <symbol id="next-icon" viewBox="111.32 11.53 540 546.42">
        <g>
            <path d="m569.5 13.238h-101.82c-9.332 0-16.969 7.6367-16.969 16.969v206.45l-310.05-219.61-5.9414-4.207c-1.9844-0.83203-4.1406-1.3086-6.4297-1.3086-9.3828 0-16.969 7.6055-16.969 16.973v512.48c0 9.3477 7.5859 16.969 16.969 16.969 2.2891 0 4.4453-0.49219 6.4297-1.3242l5.9258-4.1758 310.07-219.62v206.45c0 9.3359 7.6367 16.973 16.969 16.973h101.82c9.332 0 16.969-7.6367 16.969-16.973v-509.09c0-9.332-7.6367-16.969-16.969-16.969z"/>
        </g>
    </symbol>

    <symbol id="volume-icon-high" viewBox="107.3 102.11 487.55 355.72">
        <g>
            <path d="m372.39 104.46c-3.2422-1.5742-6.7305-2.3477-10.199-2.3477-5.1445 0-10.25 1.6992-14.449 5.0039l-112.59 88.598-104.49-0.003906c-12.902 0-23.359 10.457-23.359 23.359v120.45c0 12.902 10.457 23.359 23.359 23.359h102.78l114.29 89.949c4.1992 3.3047 9.3047 5.0039 14.449 5.0039 3.4688 0 6.957-0.77344 10.199-2.3477 8.0469-3.9062 13.156-12.066 13.156-21.012l0.003907-309c0-8.9453-5.1094-17.105-13.156-21.012z"/>
            <path d="m438.21 201.42c-3.6484-5.2344-9.6406-8.3555-16.023-8.3555-4.0039 0-7.8633 1.2148-11.152 3.5078-4.2773 2.9805-7.1367 7.4531-8.0547 12.586-0.91406 5.1328 0.22266 10.316 3.2031 14.594 11.98 17.18 18.312 36.879 18.312 56.965 0 19.73-6.1602 39.152-17.816 56.172-6.082 8.8789-3.8047 21.055 5.0742 27.141 3.2617 2.2344 7.0742 3.4141 11.02 3.4141 6.4492 0 12.477-3.1758 16.117-8.4922 16.125-23.543 24.648-50.594 24.648-78.234 0-28.109-8.7578-55.531-25.328-79.297z"/>
            <path d="m486.14 155.84c-3.7227-4.5703-9.2422-7.1914-15.141-7.1914-4.4727 0-8.8477 1.5586-12.32 4.3867-4.043 3.293-6.5625 7.9648-7.0938 13.152s0.99219 10.27 4.2852 14.312c23.82 29.242 36.414 63.895 36.414 100.21 0 35.957-12.383 70.328-35.812 99.402-6.7539 8.3828-5.4297 20.695 2.9531 27.449 3.457 2.7852 7.8047 4.3203 12.242 4.3203 5.9414 0 11.484-2.6523 15.207-7.2734 29.082-36.09 44.457-78.934 44.457-123.9-0.007813-45.402-15.633-88.582-45.191-124.87z"/>
            <path d="m530.95 114.14c-3.707-4.2305-9.0625-6.6602-14.691-6.6602-4.7305 0-9.293 1.7148-12.855 4.8359-8.0977 7.0898-8.9141 19.449-1.8242 27.547 35.48 40.516 54.234 89.227 54.234 140.86 0 51.27-18.531 99.703-53.586 140.07-7.0547 8.125-6.1836 20.48 1.9414 27.543 3.5508 3.082 8.0938 4.7812 12.793 4.7812 5.6602 0 11.031-2.4492 14.746-6.7227 41.312-47.574 63.148-104.86 63.148-165.67 0-61.242-22.098-118.84-63.906-166.59z"/>
        </g>
    </symbol>

    <symbol id="volume-icon-medium" viewBox="107.3 102.11 487.55 355.72">
        <g>
            <path d="m372.39 104.46c-3.2422-1.5742-6.7305-2.3477-10.199-2.3477-5.1445 0-10.25 1.6992-14.449 5.0039l-112.59 88.598-104.49-0.003906c-12.902 0-23.359 10.457-23.359 23.359v120.45c0 12.902 10.457 23.359 23.359 23.359h102.78l114.29 89.949c4.1992 3.3047 9.3047 5.0039 14.449 5.0039 3.4688 0 6.957-0.77344 10.199-2.3477 8.0469-3.9062 13.156-12.066 13.156-21.012l0.003907-309c0-8.9453-5.1094-17.105-13.156-21.012z"/>
            <path d="m438.21 201.42c-3.6484-5.2344-9.6406-8.3555-16.023-8.3555-4.0039 0-7.8633 1.2148-11.152 3.5078-4.2773 2.9805-7.1367 7.4531-8.0547 12.586-0.91406 5.1328 0.22266 10.316 3.2031 14.594 11.98 17.18 18.312 36.879 18.312 56.965 0 19.73-6.1602 39.152-17.816 56.172-6.082 8.8789-3.8047 21.055 5.0742 27.141 3.2617 2.2344 7.0742 3.4141 11.02 3.4141 6.4492 0 12.477-3.1758 16.117-8.4922 16.125-23.543 24.648-50.594 24.648-78.234 0-28.109-8.7578-55.531-25.328-79.297z"/>
            <path d="m486.14 155.84c-3.7227-4.5703-9.2422-7.1914-15.141-7.1914-4.4727 0-8.8477 1.5586-12.32 4.3867-4.043 3.293-6.5625 7.9648-7.0938 13.152s0.99219 10.27 4.2852 14.312c23.82 29.242 36.414 63.895 36.414 100.21 0 35.957-12.383 70.328-35.812 99.402-6.7539 8.3828-5.4297 20.695 2.9531 27.449 3.457 2.7852 7.8047 4.3203 12.242 4.3203 5.9414 0 11.484-2.6523 15.207-7.2734 29.082-36.09 44.457-78.934 44.457-123.9-0.007813-45.402-15.633-88.582-45.191-124.87z"/>
        </g>
    </symbol>

    <symbol id="volume-icon-low" viewBox="107.3 102.11 487.55 355.72">
        <g>
            <path d="m372.39 104.46c-3.2422-1.5742-6.7305-2.3477-10.199-2.3477-5.1445 0-10.25 1.6992-14.449 5.0039l-112.59 88.598-104.49-0.003906c-12.902 0-23.359 10.457-23.359 23.359v120.45c0 12.902 10.457 23.359 23.359 23.359h102.78l114.29 89.949c4.1992 3.3047 9.3047 5.0039 14.449 5.0039 3.4688 0 6.957-0.77344 10.199-2.3477 8.0469-3.9062 13.156-12.066 13.156-21.012l0.003907-309c0-8.9453-5.1094-17.105-13.156-21.012z"/>
            <path d="m438.21 201.42c-3.6484-5.2344-9.6406-8.3555-16.023-8.3555-4.0039 0-7.8633 1.2148-11.152 3.5078-4.2773 2.9805-7.1367 7.4531-8.0547 12.586-0.91406 5.1328 0.22266 10.316 3.2031 14.594 11.98 17.18 18.312 36.879 18.312 56.965 0 19.73-6.1602 39.152-17.816 56.172-6.082 8.8789-3.8047 21.055 5.0742 27.141 3.2617 2.2344 7.0742 3.4141 11.02 3.4141 6.4492 0 12.477-3.1758 16.117-8.4922 16.125-23.543 24.648-50.594 24.648-78.234 0-28.109-8.7578-55.531-25.328-79.297z"/>
        </g>
    </symbol>

    <symbol id="volume-icon-mute" viewBox="109.76 65.67 480.28 429.37">
        <g>
            <path d="m372.39 104.46c-3.2422-1.5742-6.7305-2.3477-10.199-2.3477-5.1445 0-10.25 1.6992-14.449 5.0039l-112.59 88.598-104.49-0.003906c-12.902 0-23.359 10.457-23.359 23.359v120.45c0 12.902 10.457 23.359 23.359 23.359h102.78l114.29 89.949c4.1992 3.3047 9.3047 5.0039 14.449 5.0039 3.4688 0 6.957-0.77344 10.199-2.3477 8.0469-3.9062 13.156-12.066 13.156-21.012l0.003907-309c0-8.9453-5.1094-17.105-13.156-21.012z"/>
            <path d="m584.08 205.52c-7.8398-7.8398-19.602-7.8398-27.441 0l-47.039 47.039-47.039-47.039c-7.8398-7.8398-19.602-7.8398-27.441 0-7.8398 7.8398-7.8398 19.602 0 27.441l47.039 47.039-47.039 47.039c-7.8398 7.8398-7.8398 19.602 0 27.441 3.9219 3.9219 8.9609 5.6016 13.441 5.6016 4.4805 0 9.5195-1.6797 13.441-5.6016l47.039-47.039 47.039 47.039c3.9219 3.9219 8.9609 5.6016 13.441 5.6016 5.0391 0 9.5195-1.6797 13.441-5.6016 7.8398-7.8398 7.8398-19.602 0-27.441l-45.359-47.039 47.039-47.039c7.2812-6.7227 7.2812-19.602-0.5625-27.441z"/>
        </g>
    </symbol>

    <symbol id="repeat-icon" viewBox="105 49.46 490 461.07">
        <g>
            <path d="m151.67 233.33c0-36.633 35.699-70 74.898-70h223.3v67.199l134.4-90.531-134.4-90.535v67.203h-223.3c-64.75 0-121.57 54.48-121.57 116.66v81.668h46.668z"/>
            <path d="m548.33 326.67c0 36.633-35.699 70-74.898 70h-222.6v-67.203l-134.16 90.535 134.16 90.535v-67.203h222.6c64.75 0 121.57-54.48 121.57-116.66v-81.668h-46.668z"/>
        </g>
    </symbol>

    <symbol id="menu-icon" viewBox="140 140 420 280">
        <g>
            <path d="m163.33 373.33h280c12.887 0 23.336 10.449 23.336 23.336s-10.449 23.332-23.336 23.332h-280c-12.887 0-23.332-10.445-23.332-23.332s10.445-23.336 23.332-23.336zm0-116.66h373.34c12.887 0 23.332 10.445 23.332 23.332s-10.445 23.332-23.332 23.332h-373.34c-12.887 0-23.332-10.445-23.332-23.332s10.445-23.332 23.332-23.332zm0-116.67h326.67c12.887 0 23.332 10.445 23.332 23.332s-10.445 23.336-23.332 23.336h-326.67c-12.887 0-23.332-10.449-23.332-23.336s10.445-23.332 23.332-23.332z"/>
        </g>
    </symbol>

    <symbol id="weather-icon" viewBox="98 44.15 504 471.76">
        <g>
            <path d="m552 420.29c-2.2188 0.015625-4.4297 0.17188-6.625 0.46875-4.418-20.801-16.32-39.254-33.441-51.859s-38.277-18.492-59.449-16.535c-8.2031-72.266-66.184-128.29-136.54-128.29-61.371 0-113.34 42.625-131.06 101.48-23.559 2.4414-45.406 13.43-61.418 30.883-16.008 17.457-25.07 40.172-25.469 63.855 0 52.781 44.469 95.566 99.324 95.566h354.68c13.047 0.59375 25.77-4.1758 35.215-13.203 9.4453-9.0234 14.785-21.516 14.785-34.578s-5.3398-25.559-14.785-34.582c-9.4453-9.0234-22.168-13.797-35.215-13.203z"/>
            <path d="m372.55 44.535c-3.9492 0.90625-7.375 3.3398-9.5273 6.7695-2.1523 3.4297-2.8516 7.5742-1.9492 11.52l6.4766 28.277c1.2188 5.3164 5.1797 9.5781 10.391 11.184 5.2148 1.6055 10.887 0.30469 14.883-3.4102 3.9961-3.7109 5.707-9.2734 4.4883-14.59l-6.4766-28.273 0.003906-0.003907c-0.90625-3.9453-3.3398-7.3711-6.7695-9.5234-3.4297-2.1523-7.5742-2.8516-11.52-1.9492z"/>
            <path d="m485.2 119.38c3.4297 2.1484 7.5742 2.8516 11.523 1.9453 3.9453-0.90234 7.3711-3.3359 9.5234-6.7656l15.418-24.574c2.1562-3.4336 2.8633-7.5781 1.9648-11.531-0.90234-3.9492-3.3398-7.3828-6.7734-9.5352-3.4336-2.1523-7.582-2.8555-11.531-1.9453-3.9492 0.90625-7.375 3.3477-9.5234 6.7852l-15.418 24.574c-2.1523 3.4297-2.8555 7.5742-1.9492 11.52 0.90234 3.9492 3.3359 7.375 6.7656 9.5273z"/>
            <path d="m561.86 213 28.277-6.4766c5.3164-1.2188 9.5781-5.1797 11.18-10.395 1.6016-5.2109 0.30469-10.883-3.4062-14.875-3.7109-3.9961-9.2734-5.7109-14.59-4.4961l-28.277 6.4766c-3.9453 0.90625-7.3711 3.3398-9.5234 6.7695-2.1523 3.4297-2.8555 7.5742-1.9492 11.523 0.90234 3.9453 3.3398 7.3711 6.7695 9.5234 3.4297 2.1523 7.5742 2.8555 11.52 1.9492z"/>
            <path d="m526.77 300.89c-2.1523 3.4297-2.8516 7.5742-1.9492 11.52 0.90625 3.9453 3.3398 7.3711 6.7695 9.5234l24.578 15.414c4.6172 2.8984 10.434 3.1133 15.254 0.5625 4.8203-2.5547 7.9141-7.4844 8.1133-12.934 0.19922-5.4492-2.5234-10.594-7.1445-13.492l-24.578-15.414c-3.4297-2.1523-7.5742-2.8516-11.52-1.9492-3.9453 0.90234-7.3711 3.3398-9.5234 6.7695z"/>
            <path d="m258.07 150.35 24.578 15.414-0.003906 0.003906c4.6211 2.8984 10.438 3.1094 15.258 0.55859s7.9102-7.4805 8.1133-12.934c0.19922-5.4492-2.5234-10.594-7.1445-13.492l-24.578-15.414c-3.4297-2.1602-7.5781-2.8633-11.527-1.9609-3.9531 0.89844-7.3828 3.3359-9.5352 6.7695s-2.8555 7.582-1.9453 11.531c0.90625 3.9492 3.3477 7.375 6.7852 9.5234z"/>
            <path d="m327.69 196.59c64.652 4.793 119.76 48.762 142.54 110.55 24.055-17.332 38.523-44.992 39.047-74.633 0.52344-29.641-12.965-57.793-36.387-75.961-23.426-18.168-54.047-24.227-82.629-16.348-28.578 7.8828-51.766 28.777-62.57 56.387z"/>
        </g>
    </symbol>

</svg>